
Release info:

General
Format                                   : Flash Video
File size                                : 167 MiB
Duration                                 : 43mn 1s
Overall bit rate                         : 544 Kbps


Video
Format                                   : AVC
Format/Info                              : Advanced Video Codec
Format profile                           : Main@L3.0
Format settings, CABAC                   : Yes
Format settings, ReFrames                : 3 frames
Format settings, GOP                     : M=1, N=60
Codec ID                                 : 7
Duration                                 : 43mn 1s
Bit rate                                 : 407 Kbps
Width                                    : 640 pixels
Height                                   : 360 pixels
Display aspect ratio                     : 16:9
Frame rate mode                          : Constant
Frame rate                               : 29.970 fps
Color space                              : YUV
Chroma subsampling                       : 4:2:0
Bit depth                                : 8 bits
Scan type                                : Progressive
Bits/(Pixel*Frame)                       : 0.059
Stream size                              : 125 MiB (75%)

Audio
Format                                   : AAC
Format/Info                              : Advanced Audio Codec
Format profile                           : LC
Codec ID                                 : 10
Duration                                 : 43mn 1s
Bit rate                                 : 129 Kbps
Channel(s)                               : 2 channels
Channel positions                        : Front: L R
Sampling rate                            : 44.1 KHz
Compression mode                         : Lossy
Stream size                              : 39.6 MiB (24%)



Source:
credit to original movie ripper  (Thanks)

IMDB Info:

[code]Director: Kate Dart
Stars: Natalie Batalha, Erik Dellums and Robert Hurt

Ratings: 8.1/10

Genres: Documentary

Release Date: 25 July 2012 (USA)

www.imdb.com/title/tt2273138/

Screen Shot:
 
http://www.shotpix.com/images/07742475440375642421.png 
http://www.shotpix.com/images/41096967767659892972.png 
http://www.shotpix.com/images/76166629629226051998.png 
http://www.shotpix.com/images/84940027824938584744.png 
http://www.shotpix.com/images/58479435250838579532.png 
http://www.shotpix.com/images/54136889616801727762.png